<mxfile host="app.diagrams.net" modified="2021-08-04T21:53:21.770Z" agent="5.0 (Windows NT 10.0; Win64; x64) AppleWebKit/537.36 (KHTML, like Gecko) Chrome/92.0.4515.107 Safari/537.36" etag="Puuh8sVgqvOsMYYuF-Iw" version="14.9.3" type="github">
  <diagram id="bwN6AeMt5tZ8UF1TNSbd" name="Page-1">
    <mxGraphModel dx="2049" dy="1690" grid="1" gridSize="10" guides="1" tooltips="1" connect="1" arrows="0" fold="1" page="1" pageScale="1" pageWidth="827" pageHeight="1169" math="0" shadow="0">
      <root>
        <mxCell id="0" />
        <mxCell id="1" parent="0" />
        <mxCell id="OFoZSoZyWxW7RN4DEDmb-1" value="Driver" style="swimlane;fontStyle=1;align=center;verticalAlign=top;childLayout=stackLayout;horizontal=1;startSize=26;horizontalStack=0;resizeParent=1;resizeParentMax=0;resizeLast=0;collapsible=1;marginBottom=0;" parent="1" vertex="1">
          <mxGeometry x="130" y="-50" width="236" height="190" as="geometry">
            <mxRectangle x="20" y="-150" width="70" height="26" as="alternateBounds" />
          </mxGeometry>
        </mxCell>
        <mxCell id="ZteklEqnGV9etw1wFDza-6" value="- OperationsExecutor" style="text;strokeColor=none;fillColor=none;align=left;verticalAlign=top;spacingLeft=4;spacingRight=4;overflow=hidden;rotatable=0;points=[[0,0.5],[1,0.5]];portConstraint=eastwest;" parent="OFoZSoZyWxW7RN4DEDmb-1" vertex="1">
          <mxGeometry y="26" width="236" height="26" as="geometry" />
        </mxCell>
        <mxCell id="OFoZSoZyWxW7RN4DEDmb-3" value="" style="line;strokeWidth=1;fillColor=none;align=left;verticalAlign=middle;spacingTop=-1;spacingLeft=3;spacingRight=3;rotatable=0;labelPosition=right;points=[];portConstraint=eastwest;" parent="OFoZSoZyWxW7RN4DEDmb-1" vertex="1">
          <mxGeometry y="52" width="236" height="28" as="geometry" />
        </mxCell>
        <mxCell id="OFoZSoZyWxW7RN4DEDmb-4" value="+ main()&#xa;- openConnection():str&#xa;- initialize(): str&#xa;- executeOperation(str,str[],int[]): str&#xa;- abort()&#xa;" style="text;strokeColor=none;fillColor=none;align=left;verticalAlign=top;spacingLeft=4;spacingRight=4;overflow=hidden;rotatable=0;points=[[0,0.5],[1,0.5]];portConstraint=eastwest;" parent="OFoZSoZyWxW7RN4DEDmb-1" vertex="1">
          <mxGeometry y="80" width="236" height="110" as="geometry" />
        </mxCell>
        <mxCell id="OFoZSoZyWxW7RN4DEDmb-5" value="RobotConnection" style="swimlane;fontStyle=1;align=center;verticalAlign=top;childLayout=stackLayout;horizontal=1;startSize=26;horizontalStack=0;resizeParent=1;resizeParentMax=0;resizeLast=0;collapsible=1;marginBottom=0;" parent="1" vertex="1">
          <mxGeometry x="284" y="245" width="586" height="406" as="geometry">
            <mxRectangle x="284" y="300" width="130" height="26" as="alternateBounds" />
          </mxGeometry>
        </mxCell>
        <mxCell id="UFVqu1UR7yA-cZj-ZWuM-9" value="&lt;span style=&quot;&quot;&gt;- int ip_address = 1000&lt;/span&gt;" style="text;html=1;strokeColor=none;fillColor=none;align=left;verticalAlign=middle;whiteSpace=wrap;rounded=0;labelBackgroundColor=none;" vertex="1" parent="OFoZSoZyWxW7RN4DEDmb-5">
          <mxGeometry y="26" width="586" height="20" as="geometry" />
        </mxCell>
        <mxCell id="UFVqu1UR7yA-cZj-ZWuM-10" value="&lt;span style=&quot;&quot;&gt;- instance: RobotConnection&lt;/span&gt;" style="text;html=1;strokeColor=none;fillColor=none;align=left;verticalAlign=middle;whiteSpace=wrap;rounded=0;labelBackgroundColor=none;" vertex="1" parent="OFoZSoZyWxW7RN4DEDmb-5">
          <mxGeometry y="46" width="586" height="20" as="geometry" />
        </mxCell>
        <mxCell id="UFVqu1UR7yA-cZj-ZWuM-11" value="&lt;span&gt;- boolean connected = false&lt;/span&gt;" style="text;html=1;strokeColor=none;fillColor=none;align=left;verticalAlign=middle;whiteSpace=wrap;rounded=0;labelBackgroundColor=none;" vertex="1" parent="OFoZSoZyWxW7RN4DEDmb-5">
          <mxGeometry y="66" width="586" height="20" as="geometry" />
        </mxCell>
        <mxCell id="UFVqu1UR7yA-cZj-ZWuM-12" value="&lt;span&gt;- OutputStream outputStream //used for the connection&lt;/span&gt;" style="text;html=1;strokeColor=none;fillColor=none;align=left;verticalAlign=middle;whiteSpace=wrap;rounded=0;labelBackgroundColor=none;" vertex="1" parent="OFoZSoZyWxW7RN4DEDmb-5">
          <mxGeometry y="86" width="586" height="20" as="geometry" />
        </mxCell>
        <mxCell id="UFVqu1UR7yA-cZj-ZWuM-13" value="&lt;span&gt;- BufferedReader inputStreamReader // reads the string returned by the MockRobot&lt;/span&gt;" style="text;html=1;strokeColor=none;fillColor=none;align=left;verticalAlign=middle;whiteSpace=wrap;rounded=0;labelBackgroundColor=none;" vertex="1" parent="OFoZSoZyWxW7RN4DEDmb-5">
          <mxGeometry y="106" width="586" height="20" as="geometry" />
        </mxCell>
        <mxCell id="UFVqu1UR7yA-cZj-ZWuM-14" value="&lt;span&gt;- int process_id //number returned by robot after sending a command = process_in_progress&lt;/span&gt;" style="text;html=1;strokeColor=none;fillColor=none;align=left;verticalAlign=middle;whiteSpace=wrap;rounded=0;labelBackgroundColor=none;" vertex="1" parent="OFoZSoZyWxW7RN4DEDmb-5">
          <mxGeometry y="126" width="586" height="20" as="geometry" />
        </mxCell>
        <mxCell id="UFVqu1UR7yA-cZj-ZWuM-15" value="&lt;span&gt;- boolean homed = false&lt;/span&gt;" style="text;html=1;strokeColor=none;fillColor=none;align=left;verticalAlign=middle;whiteSpace=wrap;rounded=0;labelBackgroundColor=none;" vertex="1" parent="OFoZSoZyWxW7RN4DEDmb-5">
          <mxGeometry y="146" width="586" height="20" as="geometry" />
        </mxCell>
        <mxCell id="UFVqu1UR7yA-cZj-ZWuM-17" value="&lt;span&gt;- boolean&amp;nbsp;&lt;/span&gt;empty_hand = true&amp;nbsp;&lt;span&gt;//include set &amp;amp; get methods&lt;/span&gt;" style="text;html=1;strokeColor=none;fillColor=none;align=left;verticalAlign=middle;whiteSpace=wrap;rounded=0;labelBackgroundColor=none;" vertex="1" parent="OFoZSoZyWxW7RN4DEDmb-5">
          <mxGeometry y="166" width="586" height="20" as="geometry" />
        </mxCell>
        <mxCell id="OFoZSoZyWxW7RN4DEDmb-7" value="" style="line;strokeWidth=1;fillColor=none;align=left;verticalAlign=middle;spacingTop=-1;spacingLeft=3;spacingRight=3;rotatable=0;labelPosition=right;points=[];portConstraint=eastwest;" parent="OFoZSoZyWxW7RN4DEDmb-5" vertex="1">
          <mxGeometry y="186" width="586" height="20" as="geometry" />
        </mxCell>
        <mxCell id="UFVqu1UR7yA-cZj-ZWuM-24" value="&lt;span&gt;- RobotConnection(): str //starts the class&amp;nbsp;&lt;/span&gt;" style="text;html=1;strokeColor=none;fillColor=none;align=left;verticalAlign=middle;whiteSpace=wrap;rounded=0;labelBackgroundColor=none;" vertex="1" parent="OFoZSoZyWxW7RN4DEDmb-5">
          <mxGeometry y="206" width="586" height="20" as="geometry" />
        </mxCell>
        <mxCell id="UFVqu1UR7yA-cZj-ZWuM-25" value="&lt;span&gt;+ getInstance(): RobotConnection // returns an instance of the class&lt;/span&gt;" style="text;html=1;strokeColor=none;fillColor=none;align=left;verticalAlign=middle;whiteSpace=wrap;rounded=0;labelBackgroundColor=none;" vertex="1" parent="OFoZSoZyWxW7RN4DEDmb-5">
          <mxGeometry y="226" width="586" height="20" as="geometry" />
        </mxCell>
        <mxCell id="UFVqu1UR7yA-cZj-ZWuM-26" value="&lt;span&gt;- establishConnection() //creates the connection with TCP/IP protocoll&lt;/span&gt;" style="text;html=1;strokeColor=none;fillColor=none;align=left;verticalAlign=middle;whiteSpace=wrap;rounded=0;labelBackgroundColor=none;" vertex="1" parent="OFoZSoZyWxW7RN4DEDmb-5">
          <mxGeometry y="246" width="586" height="20" as="geometry" />
        </mxCell>
        <mxCell id="UFVqu1UR7yA-cZj-ZWuM-27" value="&lt;span&gt;+ startConnection():str //Called by Driver [openConnection()], return empty string if successful&lt;/span&gt;" style="text;html=1;strokeColor=none;fillColor=none;align=left;verticalAlign=middle;whiteSpace=wrap;rounded=0;labelBackgroundColor=none;" vertex="1" parent="OFoZSoZyWxW7RN4DEDmb-5">
          <mxGeometry y="266" width="586" height="20" as="geometry" />
        </mxCell>
        <mxCell id="UFVqu1UR7yA-cZj-ZWuM-28" value="&lt;span&gt;+ sendMessage(string): str //Sends the string to the robot assuming it is in the correct format&lt;/span&gt;" style="text;html=1;strokeColor=none;fillColor=none;align=left;verticalAlign=middle;whiteSpace=wrap;rounded=0;labelBackgroundColor=none;" vertex="1" parent="OFoZSoZyWxW7RN4DEDmb-5">
          <mxGeometry y="286" width="586" height="20" as="geometry" />
        </mxCell>
        <mxCell id="UFVqu1UR7yA-cZj-ZWuM-29" value="&lt;span&gt;+ stopConnection(): str // Called by Driver [abort()] , returns an empty string when succesfull&lt;/span&gt;" style="text;html=1;strokeColor=none;fillColor=none;align=left;verticalAlign=middle;whiteSpace=wrap;rounded=0;labelBackgroundColor=none;" vertex="1" parent="OFoZSoZyWxW7RN4DEDmb-5">
          <mxGeometry y="306" width="586" height="20" as="geometry" />
        </mxCell>
        <mxCell id="UFVqu1UR7yA-cZj-ZWuM-30" value="&lt;span&gt;- checkConnection(): connected //Used by [callHome()] to verify connection has been established&lt;/span&gt;" style="text;html=1;strokeColor=none;fillColor=none;align=left;verticalAlign=middle;whiteSpace=wrap;rounded=0;labelBackgroundColor=none;" vertex="1" parent="OFoZSoZyWxW7RN4DEDmb-5">
          <mxGeometry y="326" width="586" height="20" as="geometry" />
        </mxCell>
        <mxCell id="UFVqu1UR7yA-cZj-ZWuM-31" value="&lt;span&gt;+ checkHomedStatus(): homed // Used by OperationsExecutor to verify an operation can be executed&lt;/span&gt;" style="text;html=1;strokeColor=none;fillColor=none;align=left;verticalAlign=middle;whiteSpace=wrap;rounded=0;labelBackgroundColor=none;" vertex="1" parent="OFoZSoZyWxW7RN4DEDmb-5">
          <mxGeometry y="346" width="586" height="20" as="geometry" />
        </mxCell>
        <mxCell id="UFVqu1UR7yA-cZj-ZWuM-32" value="&lt;span&gt;+ callHome(): str //used by Driver [initialize()] to home the robot&lt;/span&gt;" style="text;html=1;strokeColor=none;fillColor=none;align=left;verticalAlign=middle;whiteSpace=wrap;rounded=0;labelBackgroundColor=none;" vertex="1" parent="OFoZSoZyWxW7RN4DEDmb-5">
          <mxGeometry y="366" width="586" height="20" as="geometry" />
        </mxCell>
        <mxCell id="UFVqu1UR7yA-cZj-ZWuM-33" value="&lt;span&gt;+ waitForProcessToEnd(String process_to_send): int//return the process ID when finished&lt;/span&gt;" style="text;html=1;strokeColor=none;fillColor=none;align=left;verticalAlign=middle;whiteSpace=wrap;rounded=0;labelBackgroundColor=none;" vertex="1" parent="OFoZSoZyWxW7RN4DEDmb-5">
          <mxGeometry y="386" width="586" height="20" as="geometry" />
        </mxCell>
        <mxCell id="OFoZSoZyWxW7RN4DEDmb-10" style="edgeStyle=orthogonalEdgeStyle;rounded=0;orthogonalLoop=1;jettySize=auto;html=1;endArrow=block;endFill=1;entryX=1;entryY=0.75;entryDx=0;entryDy=0;" parent="OFoZSoZyWxW7RN4DEDmb-5" source="OFoZSoZyWxW7RN4DEDmb-5" target="UFVqu1UR7yA-cZj-ZWuM-25" edge="1">
          <mxGeometry relative="1" as="geometry">
            <mxPoint x="586" y="491" as="targetPoint" />
            <Array as="points">
              <mxPoint x="469" y="445" />
              <mxPoint x="626" y="445" />
              <mxPoint x="626" y="240" />
            </Array>
            <mxPoint x="468.8000000000002" y="576" as="sourcePoint" />
          </mxGeometry>
        </mxCell>
        <mxCell id="OFoZSoZyWxW7RN4DEDmb-11" value="0..1" style="edgeLabel;html=1;align=center;verticalAlign=middle;resizable=0;points=[];" parent="OFoZSoZyWxW7RN4DEDmb-10" vertex="1" connectable="0">
          <mxGeometry x="0.0391" y="2" relative="1" as="geometry">
            <mxPoint x="-158" y="-44" as="offset" />
          </mxGeometry>
        </mxCell>
        <mxCell id="OFoZSoZyWxW7RN4DEDmb-9" style="edgeStyle=orthogonalEdgeStyle;rounded=0;orthogonalLoop=1;jettySize=auto;html=1;endArrow=diamond;endFill=0;" parent="1" source="OFoZSoZyWxW7RN4DEDmb-1" target="OFoZSoZyWxW7RN4DEDmb-5" edge="1">
          <mxGeometry relative="1" as="geometry">
            <Array as="points">
              <mxPoint x="577" y="45" />
            </Array>
          </mxGeometry>
        </mxCell>
        <mxCell id="OFoZSoZyWxW7RN4DEDmb-12" value="0..1" style="edgeLabel;html=1;align=center;verticalAlign=middle;resizable=0;points=[];" parent="OFoZSoZyWxW7RN4DEDmb-9" vertex="1" connectable="0">
          <mxGeometry x="0.6561" y="-4" relative="1" as="geometry">
            <mxPoint x="14" y="9" as="offset" />
          </mxGeometry>
        </mxCell>
        <mxCell id="OFoZSoZyWxW7RN4DEDmb-13" value="1" style="edgeLabel;html=1;align=center;verticalAlign=middle;resizable=0;points=[];" parent="OFoZSoZyWxW7RN4DEDmb-9" vertex="1" connectable="0">
          <mxGeometry x="-0.8439" y="-2" relative="1" as="geometry">
            <mxPoint y="40" as="offset" />
          </mxGeometry>
        </mxCell>
        <mxCell id="OFoZSoZyWxW7RN4DEDmb-26" style="edgeStyle=orthogonalEdgeStyle;rounded=0;orthogonalLoop=1;jettySize=auto;html=1;endArrow=diamondThin;endFill=0;startArrow=diamondThin;startFill=0;" parent="1" source="OFoZSoZyWxW7RN4DEDmb-19" target="OFoZSoZyWxW7RN4DEDmb-5" edge="1">
          <mxGeometry relative="1" as="geometry">
            <Array as="points">
              <mxPoint x="30" y="502" />
            </Array>
          </mxGeometry>
        </mxCell>
        <mxCell id="UFVqu1UR7yA-cZj-ZWuM-3" style="edgeStyle=orthogonalEdgeStyle;rounded=0;orthogonalLoop=1;jettySize=auto;html=1;entryX=0.5;entryY=0;entryDx=0;entryDy=0;" edge="1" parent="1" source="OFoZSoZyWxW7RN4DEDmb-19" target="UFVqu1UR7yA-cZj-ZWuM-1">
          <mxGeometry relative="1" as="geometry">
            <Array as="points">
              <mxPoint x="-40" y="480" />
              <mxPoint x="-40" y="480" />
            </Array>
          </mxGeometry>
        </mxCell>
        <mxCell id="UFVqu1UR7yA-cZj-ZWuM-8" style="edgeStyle=orthogonalEdgeStyle;rounded=0;orthogonalLoop=1;jettySize=auto;html=1;" edge="1" parent="1" source="OFoZSoZyWxW7RN4DEDmb-19">
          <mxGeometry relative="1" as="geometry">
            <mxPoint x="-340" y="428" as="targetPoint" />
          </mxGeometry>
        </mxCell>
        <mxCell id="OFoZSoZyWxW7RN4DEDmb-19" value="OperationsExecutor" style="swimlane;fontStyle=1;align=center;verticalAlign=top;childLayout=stackLayout;horizontal=1;startSize=26;horizontalStack=0;resizeParent=1;resizeParentMax=0;resizeLast=0;collapsible=1;marginBottom=0;" parent="1" vertex="1">
          <mxGeometry x="-260" y="260" width="500" height="194" as="geometry">
            <mxRectangle x="-40" y="390" width="150" height="26" as="alternateBounds" />
          </mxGeometry>
        </mxCell>
        <mxCell id="UFVqu1UR7yA-cZj-ZWuM-35" value="&lt;span&gt;- process_status: str&lt;/span&gt;" style="text;html=1;strokeColor=none;fillColor=none;align=left;verticalAlign=middle;whiteSpace=wrap;rounded=0;labelBackgroundColor=none;" vertex="1" parent="OFoZSoZyWxW7RN4DEDmb-19">
          <mxGeometry y="26" width="500" height="20" as="geometry" />
        </mxCell>
        <mxCell id="UFVqu1UR7yA-cZj-ZWuM-34" value="- process_in_progress_id: int" style="text;html=1;strokeColor=none;fillColor=none;align=left;verticalAlign=middle;whiteSpace=wrap;rounded=0;labelBackgroundColor=none;" vertex="1" parent="OFoZSoZyWxW7RN4DEDmb-19">
          <mxGeometry y="46" width="500" height="20" as="geometry" />
        </mxCell>
        <mxCell id="OFoZSoZyWxW7RN4DEDmb-21" value="" style="line;strokeWidth=1;fillColor=none;align=left;verticalAlign=middle;spacingTop=-1;spacingLeft=3;spacingRight=3;rotatable=0;labelPosition=right;points=[];portConstraint=eastwest;" parent="OFoZSoZyWxW7RN4DEDmb-19" vertex="1">
          <mxGeometry y="66" width="500" height="8" as="geometry" />
        </mxCell>
        <mxCell id="UFVqu1UR7yA-cZj-ZWuM-18" value="+ OperationsExecutor()" style="text;html=1;strokeColor=none;fillColor=none;align=left;verticalAlign=middle;whiteSpace=wrap;rounded=0;labelBackgroundColor=none;" vertex="1" parent="OFoZSoZyWxW7RN4DEDmb-19">
          <mxGeometry y="74" width="500" height="20" as="geometry" />
        </mxCell>
        <mxCell id="UFVqu1UR7yA-cZj-ZWuM-19" value="&lt;span&gt;+ execute(operation: str, parameterName[]: str, parameterValue[]: int): str&lt;/span&gt;" style="text;html=1;strokeColor=none;fillColor=none;align=left;verticalAlign=middle;whiteSpace=wrap;rounded=0;labelBackgroundColor=none;" vertex="1" parent="OFoZSoZyWxW7RN4DEDmb-19">
          <mxGeometry y="94" width="500" height="20" as="geometry" />
        </mxCell>
        <mxCell id="UFVqu1UR7yA-cZj-ZWuM-20" value="&lt;span&gt;- pick(str[] parameterName, int[] parameteValue): str //empty when successfull&lt;/span&gt;" style="text;html=1;strokeColor=none;fillColor=none;align=left;verticalAlign=middle;whiteSpace=wrap;rounded=0;labelBackgroundColor=none;" vertex="1" parent="OFoZSoZyWxW7RN4DEDmb-19">
          <mxGeometry y="114" width="500" height="20" as="geometry" />
        </mxCell>
        <mxCell id="UFVqu1UR7yA-cZj-ZWuM-22" value="&lt;span&gt;- place(str[] parameterName, int[] parameteValue): str //empty when successfull&lt;/span&gt;" style="text;html=1;strokeColor=none;fillColor=none;align=left;verticalAlign=middle;whiteSpace=wrap;rounded=0;labelBackgroundColor=none;" vertex="1" parent="OFoZSoZyWxW7RN4DEDmb-19">
          <mxGeometry y="134" width="500" height="20" as="geometry" />
        </mxCell>
        <mxCell id="UFVqu1UR7yA-cZj-ZWuM-21" value="&lt;span&gt;- transfer(str[] parameterName, int[] parameteValue): str //empty when successfull&lt;/span&gt;" style="text;html=1;strokeColor=none;fillColor=none;align=left;verticalAlign=middle;whiteSpace=wrap;rounded=0;labelBackgroundColor=none;" vertex="1" parent="OFoZSoZyWxW7RN4DEDmb-19">
          <mxGeometry y="154" width="500" height="20" as="geometry" />
        </mxCell>
        <mxCell id="UFVqu1UR7yA-cZj-ZWuM-23" value="- sendOperation(operation) //send message to mockRobot, if id is negative, return message" style="text;html=1;strokeColor=none;fillColor=none;align=left;verticalAlign=middle;whiteSpace=wrap;rounded=0;labelBackgroundColor=none;" vertex="1" parent="OFoZSoZyWxW7RN4DEDmb-19">
          <mxGeometry y="174" width="500" height="20" as="geometry" />
        </mxCell>
        <mxCell id="OFoZSoZyWxW7RN4DEDmb-32" style="edgeStyle=orthogonalEdgeStyle;rounded=0;orthogonalLoop=1;jettySize=auto;html=1;endArrow=none;endFill=0;startArrow=open;startFill=0;" parent="1" source="OFoZSoZyWxW7RN4DEDmb-28" target="UFVqu1UR7yA-cZj-ZWuM-23" edge="1">
          <mxGeometry relative="1" as="geometry">
            <mxPoint x="-220" y="470" as="targetPoint" />
            <Array as="points">
              <mxPoint x="-220" y="480" />
              <mxPoint x="-220" y="480" />
            </Array>
          </mxGeometry>
        </mxCell>
        <mxCell id="OFoZSoZyWxW7RN4DEDmb-28" value="&lt;&lt;enum&gt;&gt;&#xa;OperationName" style="swimlane;fontStyle=0;childLayout=stackLayout;horizontal=1;startSize=40;fillColor=none;horizontalStack=0;resizeParent=1;resizeParentMax=0;resizeLast=0;collapsible=1;marginBottom=0;" parent="1" vertex="1">
          <mxGeometry x="-300" y="520" width="160" height="100" as="geometry">
            <mxRectangle x="-220" y="620" width="120" height="40" as="alternateBounds" />
          </mxGeometry>
        </mxCell>
        <mxCell id="UFVqu1UR7yA-cZj-ZWuM-40" value="pick" style="text;html=1;strokeColor=none;fillColor=none;align=center;verticalAlign=middle;whiteSpace=wrap;rounded=0;labelBackgroundColor=none;" vertex="1" parent="OFoZSoZyWxW7RN4DEDmb-28">
          <mxGeometry y="40" width="160" height="20" as="geometry" />
        </mxCell>
        <mxCell id="UFVqu1UR7yA-cZj-ZWuM-41" value="&lt;span&gt;place&lt;/span&gt;" style="text;html=1;strokeColor=none;fillColor=none;align=center;verticalAlign=middle;whiteSpace=wrap;rounded=0;labelBackgroundColor=none;" vertex="1" parent="OFoZSoZyWxW7RN4DEDmb-28">
          <mxGeometry y="60" width="160" height="20" as="geometry" />
        </mxCell>
        <mxCell id="UFVqu1UR7yA-cZj-ZWuM-42" value="transfer" style="text;html=1;strokeColor=none;fillColor=none;align=center;verticalAlign=middle;whiteSpace=wrap;rounded=0;labelBackgroundColor=none;" vertex="1" parent="OFoZSoZyWxW7RN4DEDmb-28">
          <mxGeometry y="80" width="160" height="20" as="geometry" />
        </mxCell>
        <mxCell id="UFVqu1UR7yA-cZj-ZWuM-1" value="&lt;&lt;enum&gt;&gt;&#xa;ParameterName" style="swimlane;fontStyle=0;childLayout=stackLayout;horizontal=1;startSize=40;fillColor=none;horizontalStack=0;resizeParent=1;resizeParentMax=0;resizeLast=0;collapsible=1;marginBottom=0;" vertex="1" parent="1">
          <mxGeometry x="-120" y="515" width="160" height="80" as="geometry">
            <mxRectangle x="-220" y="620" width="120" height="40" as="alternateBounds" />
          </mxGeometry>
        </mxCell>
        <mxCell id="UFVqu1UR7yA-cZj-ZWuM-48" value="&lt;span style=&quot;text-align: left&quot;&gt;SourceLocation&lt;/span&gt;" style="text;html=1;strokeColor=none;fillColor=none;align=center;verticalAlign=middle;whiteSpace=wrap;rounded=0;labelBackgroundColor=none;" vertex="1" parent="UFVqu1UR7yA-cZj-ZWuM-1">
          <mxGeometry y="40" width="160" height="20" as="geometry" />
        </mxCell>
        <mxCell id="UFVqu1UR7yA-cZj-ZWuM-47" value="&lt;span style=&quot;text-align: left&quot;&gt;DestinationLocation&lt;/span&gt;" style="text;html=1;strokeColor=none;fillColor=none;align=center;verticalAlign=middle;whiteSpace=wrap;rounded=0;labelBackgroundColor=none;" vertex="1" parent="UFVqu1UR7yA-cZj-ZWuM-1">
          <mxGeometry y="60" width="160" height="20" as="geometry" />
        </mxCell>
        <mxCell id="UFVqu1UR7yA-cZj-ZWuM-4" value="Operation" style="swimlane;fontStyle=1;align=center;verticalAlign=top;childLayout=stackLayout;horizontal=1;startSize=26;horizontalStack=0;resizeParent=1;resizeParentMax=0;resizeLast=0;collapsible=1;marginBottom=0;" vertex="1" parent="1">
          <mxGeometry x="-500" y="380" width="160" height="112" as="geometry" />
        </mxCell>
        <mxCell id="UFVqu1UR7yA-cZj-ZWuM-49" value="- name: str" style="text;strokeColor=none;fillColor=none;align=left;verticalAlign=top;spacingLeft=4;spacingRight=4;overflow=hidden;rotatable=0;points=[[0,0.5],[1,0.5]];portConstraint=eastwest;" vertex="1" parent="UFVqu1UR7yA-cZj-ZWuM-4">
          <mxGeometry y="26" width="160" height="26" as="geometry" />
        </mxCell>
        <mxCell id="UFVqu1UR7yA-cZj-ZWuM-50" value="- value: int" style="text;strokeColor=none;fillColor=none;align=left;verticalAlign=top;spacingLeft=4;spacingRight=4;overflow=hidden;rotatable=0;points=[[0,0.5],[1,0.5]];portConstraint=eastwest;" vertex="1" parent="UFVqu1UR7yA-cZj-ZWuM-4">
          <mxGeometry y="52" width="160" height="26" as="geometry" />
        </mxCell>
        <mxCell id="UFVqu1UR7yA-cZj-ZWuM-6" value="" style="line;strokeWidth=1;fillColor=none;align=left;verticalAlign=middle;spacingTop=-1;spacingLeft=3;spacingRight=3;rotatable=0;labelPosition=right;points=[];portConstraint=eastwest;" vertex="1" parent="UFVqu1UR7yA-cZj-ZWuM-4">
          <mxGeometry y="78" width="160" height="8" as="geometry" />
        </mxCell>
        <mxCell id="UFVqu1UR7yA-cZj-ZWuM-7" value="+ toString(): str" style="text;strokeColor=none;fillColor=none;align=left;verticalAlign=top;spacingLeft=4;spacingRight=4;overflow=hidden;rotatable=0;points=[[0,0.5],[1,0.5]];portConstraint=eastwest;" vertex="1" parent="UFVqu1UR7yA-cZj-ZWuM-4">
          <mxGeometry y="86" width="160" height="26" as="geometry" />
        </mxCell>
        <mxCell id="UFVqu1UR7yA-cZj-ZWuM-37" style="edgeStyle=orthogonalEdgeStyle;rounded=0;orthogonalLoop=1;jettySize=auto;html=1;endArrow=diamond;endFill=0;" edge="1" parent="1" source="OFoZSoZyWxW7RN4DEDmb-4" target="OFoZSoZyWxW7RN4DEDmb-19">
          <mxGeometry relative="1" as="geometry">
            <mxPoint x="243" y="90" as="sourcePoint" />
            <mxPoint x="351" y="235" as="targetPoint" />
            <Array as="points">
              <mxPoint x="-10" y="45" />
            </Array>
          </mxGeometry>
        </mxCell>
        <mxCell id="UFVqu1UR7yA-cZj-ZWuM-38" value="0..1" style="edgeLabel;html=1;align=center;verticalAlign=middle;resizable=0;points=[];" vertex="1" connectable="0" parent="UFVqu1UR7yA-cZj-ZWuM-37">
          <mxGeometry x="0.6561" y="-4" relative="1" as="geometry">
            <mxPoint x="14" y="9" as="offset" />
          </mxGeometry>
        </mxCell>
        <mxCell id="UFVqu1UR7yA-cZj-ZWuM-39" value="1" style="edgeLabel;html=1;align=center;verticalAlign=middle;resizable=0;points=[];" vertex="1" connectable="0" parent="UFVqu1UR7yA-cZj-ZWuM-37">
          <mxGeometry x="-0.8439" y="-2" relative="1" as="geometry">
            <mxPoint y="40" as="offset" />
          </mxGeometry>
        </mxCell>
      </root>
    </mxGraphModel>
  </diagram>
</mxfile>
